<svg xmlns="http://www.w3.org/2000/svg" viewBox="0 0 1600 700" preserveAspectRatio="xMidYMid slice">
  <defs>
    <linearGradient id="bg" x1="0" x2="1" y1="0" y2="1">
      <stop offset="0%" stop-color="#0f172a" />
      <stop offset="100%" stop-color="#1e293b" />
    </linearGradient>
    <linearGradient id="accent" x1="0" x2="1" y1="0" y2="1">
      <stop offset="0%" stop-color="#2563eb" />
      <stop offset="100%" stop-color="#06b6d4" />
    </linearGradient>
  </defs>
  <rect width="1600" height="700" fill="url(#bg)" />
  <circle cx="480" cy="220" r="210" fill="rgba(96,165,250,0.15)" />
  <circle cx="1080" cy="500" r="270" fill="rgba(6,182,212,0.12)" />
  <path d="M0 500 C400 420 700 620 1100 520 L1600 700 L1600 0 L0 0 Z" fill="url(#accent)" opacity="0.14" />
  <path d="M0 540 C420 480 740 720 1200 560 L1600 700 L1600 0 L0 0 Z" fill="url(#accent)" opacity="0.08" />
  <g opacity="0.45">
    <rect x="1120" y="110" width="380" height="220" rx="24" fill="#ffffff" />
    <rect x="1160" y="150" width="300" height="16" rx="8" fill="#e2e8f0" />
    <rect x="1160" y="190" width="260" height="16" rx="8" fill="#e2e8f0" />
    <rect x="1160" y="230" width="220" height="16" rx="8" fill="#e2e8f0" />
  </g>
  <text x="100" y="320" font-family="Inter, sans-serif" font-size="72" fill="#ffffff" font-weight="700">Journalism</text>
  <text x="100" y="420" font-family="Inter, sans-serif" font-size="32" fill="#e2e8f0">A curated directory to the journalist’s work across multiple publications.</text>
</svg>